# xmcd CD database file
#
# Track frame offsets:
#	187
#	15790
#	28560
#	42355
#	56367
#	67952
#	80302
#	96477
#	107600
#	120042
#	133455
#	143872
#
# Disc length: 2086 seconds
#
# Revision: 0
# Processed by: cddbd v1.4PL0 Copyright (c) Steve Scherf et al.
# Submitted via: CDex 1.50beta10
#
DISCID=9208240c
DTITLE=Oliver Nelson - Oliver Nelson plays Michelle
DYEAR=1966
DGENRE=Jazz
TTITLE0=Island virgin
TTITLE1=These boots are made for walkin'
TTITLE2=Jazz bug
TTITLE3=Together again
TTITLE4=Flowers on the wall
TTITLE5=Yesterday
TTITLE6=Once upon a time
TTITLE7=Michelle
TTITLE8=Do you see what I see ?
TTITLE9=Fantastic, that's you
TTITLE10=Beautiful music
TTITLE11=(Land of meadows) Meadowland
EXTD=YEAR: 1966
EXTT0=
EXTT1=
EXTT2=
EXTT3=
EXTT4=
EXTT5=
EXTT6=
EXTT7=
EXTT8=
EXTT9=
EXTT10=
EXTT11=
PLAYORDER=
